<?xml version="1.0" standalone="no"?>
<!DOCTYPE svg PUBLIC "-//W3C//DTD SVG 20010904//EN"
 "http://www.w3.org/TR/2001/REC-SVG-20010904/DTD/svg10.dtd">
<svg version="1.0" xmlns="http://www.w3.org/2000/svg"
 width="512.000000pt" height="512.000000pt" viewBox="0 0 512.000000 512.000000"
 preserveAspectRatio="xMidYMid meet">

<g transform="translate(0.000000,512.000000) scale(0.100000,-0.100000)"
fill="#000000" stroke="none">
<path d="M638 5110 c-168 -29 -292 -93 -413 -215 -103 -102 -158 -194 -197
-331 l-23 -79 0 -1925 0 -1925 23 -79 c40 -137 94 -229 197 -331 102 -102 196
-158 330 -197 l80 -23 1925 0 1925 0 79 23 c137 40 229 94 331 197 102 102
158 196 197 330 l23 80 0 1925 0 1925 -23 79 c-39 137 -94 229 -197 331 -100
100 -190 155 -325 197 l-75 23 -1905 1 c-1048 1 -1926 -2 -1952 -6z m3782
-511 c66 -14 127 -62 159 -124 l26 -49 0 -1866 0 -1866 -26 -49 c-32 -62 -93
-110 -159 -124 -72 -15 -3648 -15 -3720 0 -66 14 -127 62 -159 124 l-26 49 0
1866 0 1866 25 48 c31 61 85 105 147 122 64 17 3653 20 3733 3z"/>
<path d="M1200 3915 l-175 -175 590 -590 590 -590 -590 -590 -590 -590 178
-177 177 -178 590 590 590 590 590 -590 590 -590 177 178 178 177 -590 590
-590 590 590 590 590 590 -178 177 -177 178 -590 -590 -590 -590 -588 588
c-323 323 -589 587 -592 587 -3 0 -84 -79 -180 -175z"/>
</g>
</svg>
